# xmcd
#
# Track frame offsets: 
#        150
#        13791
#        29960
#        53580
#        72747
#        96304
#        116532
#        134890
#        152584
#        171594
#        191585
#        206016
#        219647
#
# Disc length: 3272 seconds
#
# Revision: 1
# Processed by: cddbd v1.5.2PL0 Copyright (c) Steve Scherf et al.
# Submitted via: ExactAudioCopyFreeDBPlugin 1.0
#
DISCID=d10cc60d
DTITLE=Stepa and Are - ..Ja Naksuvat Luupit
DYEAR=2012
DGENRE=Hip-Hop
TTITLE0=Intro
TTITLE1=Nukkumassa
TTITLE2=Tuu Maksaan Mut Ulos T‰‰lt‰
TTITLE3=Se On Pirun Rankkaa Olla Hyv‰ J‰tk‰ (feat. Huutava V‰‰ryys, As
TTITLE3=a, Ilkka Kalevi Tillanen and Tapani Kansalainen)
TTITLE4=Naksuvat Luupit
TTITLE5=Syˆ Papu Jos Oot N‰lk‰nen (feat. Jodarok and Kriso K)
TTITLE6=Piru Olkap‰‰ll‰
TTITLE7=2012 Tai 3 (feat. Sere)
TTITLE8=Kaikki Tapahtuu Nyt
TTITLE9=S‰tk‰t Tiskit Breikit
TTITLE10=Yht‰ Aikaa Siell‰ T‰‰ll‰
TTITLE11=Outro (feat. S‰k‰ and DJ Massimo)
TTITLE12=Viimeinen Biisi
EXTD=
EXTT0=
EXTT1=
EXTT2=
EXTT3=
EXTT4=
EXTT5=
EXTT6=
EXTT7=
EXTT8=
EXTT9=
EXTT10=
EXTT11=
EXTT12=
PLAYORDER=
